Coordinates
version=1
nRows=19
nColumns=33
inDegrees=yes

Units are S.I. units (second, meters, Newtons, ...)
Angles are in degrees.

endheader
time	ground_thorax_rot_x	ground_thorax_rot_y	ground_thorax_rot_z	ground_thorax_tx	ground_thorax_ty	ground_thorax_tz	clav_prot_r	clav_elev_r	scapula_abduction_r	scapula_elevation_r	scapula_upward_rot_r	scapula_winging_r	shoulder_elv_r	plane_of_elev_r	axial_rot_r	elbow_flexion_r	pro_sup_r	wrist_flex_r	wrist_dev_r	clav_prot_l	clav_elev_l	scapula_abduction_l	scapula_elevation_l	scapula_upward_rot_l	scapula_winging_l	shoulder_elv_l	plane_of_elev_l	axial_rot_l	elbow_flexion_l	pro_sup_l	wrist_flex_l	wrist_dev_l
      5.58000000	      0.67534342	      5.60444690	     12.24872209	     -0.11530802	      1.03558468	      0.02957814	      2.27194537	     10.07724458	     14.08386607	      6.31221410	     22.36720019	     -9.19710719	     20.31452806	    -72.71890417	     57.50495405	     63.46938155	    -24.81682202	     70.00000021	    -24.99999983	     15.52281197	     -5.95915661	    -24.75210313	    -20.30016850	    -45.00000000	      3.19010866	     62.28825311	    -36.20422024	     -2.17783635	     70.71496427	     19.61006479	     -1.49971377	    -24.99999983
      5.59000000	      0.69623760	      5.75895575	     12.16278981	     -0.11474790	      1.03566372	      0.02973048	      2.19086657	     10.12646789	     14.10344409	      6.27799036	     22.59594299	     -9.23567818	     20.65379829	    -72.55903281	     57.26530416	     64.14745727	    -25.03136454	     69.95579604	    -24.99999983	     15.56626189	     -6.11200426	    -24.82157994	    -20.15652720	    -45.00000000	      3.23481810	     62.71397836	    -35.70711214	     -1.90480461	     71.02275599	     19.25164391	     -1.09368092	    -24.99999983
      5.60000000	      0.70681390	      5.87813955	     12.06237628	     -0.11432582	      1.03599283	      0.03011900	      2.04481543	     10.00433750	     14.02883801	      6.11043750	     22.78601614	     -9.22782051	     21.38218319	    -72.51897642	     57.05426593	     65.35392076	    -25.85596105	     68.25080548	    -24.99999983	     15.68406424	     -6.43698915	    -25.01228389	    -19.84943315	    -45.00000000	      3.35412479	     63.22788642	    -35.31162914	     -1.60707145	     71.10335323	     17.80414760	      1.13570011	    -24.99999983
      5.61000000	      0.56683903	      5.94182930	     12.15443268	     -0.11394584	      1.03584842	      0.03011473	      2.11070677	     10.04696104	     14.34583119	      6.06491156	     23.02611113	     -9.36009240	     21.46899585	    -72.16017050	     57.07599047	     65.60446134	    -25.79799268	     68.16640832	    -24.99999983	     15.80945918	     -6.41120188	    -25.16481490	    -19.78174583	    -44.81247880	      3.45621840	     63.57181294	    -35.05161519	     -1.55150107	     71.42206142	     17.71740902	      1.21148868	    -24.99999983
      5.62000000	      0.77757325	      5.93323294	     11.94707169	     -0.11360820	      1.03600576	      0.03042574	      2.09673438	     10.04456507	     14.56983316	      5.96491703	     23.31897109	     -9.45700286	     22.53728414	    -72.22120395	     56.69480994	     67.11125972	    -25.80642508	     63.82234012	    -24.99999983	     15.88237092	     -6.85065562	    -25.33277058	    -19.45750626	    -45.00000000	      3.53694775	     64.04974352	    -34.31577609	     -0.97083818	     71.54306648	     16.08137692	      4.40899021	    -24.99999983
      5.63000000	      0.47261163	      5.91127955	     12.30400357	     -0.11337630	      1.03571670	      0.03032365	      2.22468102	      9.89730902	     14.82925217	      5.85161492	     23.27233078	     -9.51726429	     23.76572256	    -71.97238426	     56.66221821	     67.79644257	    -21.99528746	     58.84576375	    -24.99999983	     15.97498241	     -6.71252625	    -25.49602194	    -19.57631576	    -45.00000000	      3.60489525	     64.61095020	    -34.11069156	     -0.80024850	     71.88089152	     14.87710368	      8.09998304	    -24.99999983
      5.64000000	      0.66948973	      6.03228838	     12.05991465	     -0.11283942	      1.03569788	      0.03057761	      2.21010656	      9.94193545	     15.07303171	      5.77670068	     23.60869086	     -9.62894535	     24.18521570	    -71.75376403	     56.21041339	     68.44344686	    -22.02445106	     58.04370999	    -24.99999983	     16.09119885	     -7.12883494	    -25.67607674	    -19.18787144	    -45.00000000	      3.72174306	     65.14488154	    -33.33905732	     -0.54178060	     71.86010576	     14.88621389	      8.18715959	    -24.99512317
      5.65000000	      0.57654069	      6.07883421	     12.11095522	     -0.11241159	      1.03541506	      0.03057580	      2.29991338	      9.89941390	     15.47983130	      5.65336356	     23.86494396	     -9.77360372	     24.31841685	    -71.28667719	     56.14822681	     68.59921482	    -22.04187159	     57.80306519	    -24.99999983	     16.25737396	     -7.18932225	    -25.86964866	    -19.00127369	    -44.72728212	      3.86772130	     65.49685521	    -32.95445043	     -0.61793480	     71.92947110	     14.85968056	      8.26219737	    -24.94873744
      5.66000000	      0.67759543	      6.05393505	     12.12303757	     -0.11214725	      1.03535084	      0.03066538	      2.47720339	      9.81800342	     15.76473344	      5.61117286	     23.76964993	     -9.83546999	     26.04459033	    -71.22441879	     55.13340810	     70.22106961	    -16.95325106	     47.24151638	    -24.99999983	     16.40998176	     -7.64363153	    -26.18958825	    -18.69761354	    -45.00000000	      3.99701022	     66.04995089	    -32.29709190	     -0.04328401	     72.44328398	     13.29366063	     12.76607821	    -21.12378505
      5.67000000	      0.67934628	      6.18033568	     12.13009145	     -0.11196098	      1.03526534	      0.03058569	      2.58287303	      9.69497527	     16.25008052	      5.41097091	     24.05209380	     -9.99669902	     26.23131923	    -70.77290666	     54.98736260	     70.17464304	    -17.05703884	     46.83999882	    -24.99999983	     16.60946603	     -7.81812505	    -26.41402288	    -18.37818996	    -44.66375093	      4.17999405	     66.43126926	    -31.61865708	     -0.27298812	     72.20892301	     13.32007693	     12.77251779	    -21.07860051
      5.68000000	      0.70818988	      6.21763918	     12.00005642	     -0.11157449	      1.03505264	      0.03066946	      2.59196219	      9.57290825	     16.93252538	      5.07050008	     24.78250915	    -10.26087326	     26.30220958	    -70.78678386	     54.65385456	     70.86961946	    -18.01329989	     42.68104475	    -24.99999983	     16.80755556	     -8.04119428	    -26.76486361	    -18.20193268	    -44.75280181	      4.35163271	     66.90209804	    -30.57477973	     -0.01402236	     71.87989588	     12.77172241	     13.59827482	    -20.03098948
      5.69000000	      0.72137965	      6.17378564	     12.05935797	     -0.11148412	      1.03479581	      0.03061719	      2.90453087	      9.46410518	     17.39934315	      5.03280729	     24.59183619	    -10.36650578	     27.00310727	    -69.99702556	     53.99352025	     71.36570353	    -15.87150789	     37.12581596	    -24.99999983	     17.04258014	     -8.30584459	    -27.15246068	    -17.95704090	    -44.77520227	      4.55199413	     67.17674950	    -29.71153868	      0.36033755	     71.65661781	     11.25424777	     15.94568709	    -17.50611812
      5.70000000	      0.60789576	      6.40536909	     12.03252922	     -0.11105868	      1.03482920	      0.03061797	      2.72903245	      9.02634490	     17.99626357	      4.37409601	     25.51703576	    -10.58890055	     27.09470224	    -70.34060142	     53.47074066	     71.53613213	    -13.42649687	     32.37309156	    -24.99999983	     17.33472699	     -8.46131529	    -27.53458879	    -17.65257973	    -44.44563630	      4.80812344	     67.63198675	    -28.82888692	      0.01563647	     71.01328353	     10.58880961	     16.57070854	    -16.62049663
      5.71000000	      0.68299300	      6.34475744	     12.32048070	     -0.11097562	      1.03418834	      0.03053198	      3.22898086	      9.17610009	     18.34407104	      4.69293355	     24.87208020	    -10.64327826	     27.47208235	    -68.79881392	     53.11502049	     71.30553228	    -12.77914280	     29.64509884	    -24.99999983	     17.59015648	     -8.71515525	    -27.82889960	    -17.23733736	    -44.05872381	      5.02383066	     67.57263084	    -28.33192324	     -0.08915177	     70.49796344	     10.03886801	     17.49984908	    -15.68720671
      5.72000000	      0.53691379	      6.37096770	     12.23333223	     -0.11055121	      1.03417388	      0.03028805	      3.30492603	      8.60945809	     19.23406657	      4.00171825	     25.55236624	    -10.90587905	     27.40305504	    -68.67200999	     52.95773142	     70.85806260	    -12.84703643	     27.21859753	    -24.99999983	     17.81572739	     -8.79825825	    -28.04975111	    -16.91789064	    -43.53938242	      5.22171702	     67.72600610	    -27.46403620	     -0.08350130	     69.67840658	      9.48025862	     18.44405749	    -14.72062932
      5.73000000	      0.55456288	      6.34685115	     12.24633580	     -0.11025095	      1.03375784	      0.03011085	      3.58923965	      8.43562323	     19.85602558	      3.83625620	     25.59921943	    -11.07381519	     27.47775259	    -67.64497588	     52.76580401	     70.29274772	    -13.18618802	     24.90962704	    -24.99999983	     18.03505523	     -8.99394848	    -28.24326876	    -16.48201474	    -42.98277535	      5.40683884	     67.69633735	    -26.66718781	     -0.10003045	     68.77181274	      8.77828080	     19.56870151	    -13.64528688
      5.74000000	      0.52598891	      6.40919015	     12.19069791	     -0.10995250	      1.03353220	      0.02986211	      3.83539683	      7.99640431	     20.52473389	      3.43166118	     25.70424148	    -11.22713014	     27.66536263	    -66.82852691	     52.66152553	     69.31301656	    -13.30767696	     24.56224701	    -24.99999983	     18.28705412	     -9.34878868	    -28.50534001	    -15.93702026	    -42.50679096	      5.60906467	     67.99781276	    -25.94702484	     -0.42421810	     67.80528684	      8.83031599	     19.68400179	    -13.40176309
      5.75000000	      0.48923972	      6.44970181	     12.18646397	     -0.10966107	      1.03345707	      0.02962412	      4.10113696	      7.49476347	     21.23067545	      2.97754068	     25.80489945	    -11.37952948	     27.76037413	    -65.95450539	     52.63276206	     68.12041003	    -13.59987823	     24.02940849	    -24.99999983	     18.52090183	     -9.71818501	    -28.72664025	    -15.36544315	    -41.99603763	      5.78734483	     68.18375302	    -25.16370461	     -0.65793541	     66.56203272	      8.85026817	     19.88184816	    -13.05566735
      5.76000000	      0.41501880	      6.28802795	     12.23641493	     -0.10928812	      1.03257018	      0.02921909	      4.45072681	      7.27138173	     22.32512115	      2.64701468	     26.27472894	    -11.71699405	     27.35311291	    -65.01468893	     52.98962866	     67.14630141	    -16.42420837	     20.76172532	    -24.99999983	     18.70826856	     -9.38015985	    -28.83267995	    -15.23420998	    -41.06112717	      5.99526653	     67.40093422	    -23.89379554	     -0.33941024	     65.03303197	      7.35250752	     22.22582592	    -11.26118815
